<?xml version="1.0" encoding="utf-8"?>
<!-- Generator: Adobe Illustrator 24.3.0, SVG Export Plug-In . SVG Version: 6.00 Build 0)  -->
<svg version="1.1" id="Layer_1" xmlns="http://www.w3.org/2000/svg" xmlns:xlink="http://www.w3.org/1999/xlink" x="0px" y="0px"
	 viewBox="0 0 344.4 62" style="enable-background:new 0 0 344.4 62;" xml:space="preserve">
<style type="text/css">
	.st0{fill:#7F7F7F;}
	.st1{fill:none;stroke:#D4D2AF;stroke-width:1.4;stroke-miterlimit:10;}
	.st2{fill:none;stroke:#A8A55E;stroke-width:1.4;stroke-miterlimit:10;}
	.st3{fill:none;stroke:#6E6B29;stroke-width:1.4;stroke-miterlimit:10;}
</style>
<g>
	<path class="st0" d="M93.5,48.5V13h3.4v35.5H93.5z"/>
	<path class="st0" d="M126.2,13c6.8,0,11.4,4.5,11.4,11.1c0,6.5-4.7,11-11.4,11h-9.2v13.4h-3.4V13H126.2z M116.9,32.1h8.4
		c5.5,0,8.8-3,8.8-8c0-5.1-3.2-8.1-8.8-8.1h-8.4V32.1z"/>
	<path class="st0" d="M183.2,30.7c0,11.3-6.1,18.5-16.1,18.5c-10,0-16.1-7.2-16.1-18.5c0-11.4,6.2-18.5,16.1-18.5
		C177,12.2,183.2,19.4,183.2,30.7z M154.4,30.7c0,9.4,4.8,15.4,12.7,15.4c7.8,0,12.6-6,12.6-15.4c0-9.4-4.9-15.4-12.6-15.4
		S154.4,21.3,154.4,30.7z"/>
	<path class="st0" d="M200.1,39.3c0.5,4.1,4.5,6.9,9.9,6.9c5.3,0,9.1-3,9.1-6.9c0-3.3-2.4-5.5-7.9-6.9l-4.1-1
		c-6.7-1.6-9.5-4.4-9.5-9.3c0-5.7,4.9-9.8,12.2-9.8c6.8,0,11.8,4,12.2,9.4h-3.4c-0.5-3.8-4-6.4-8.9-6.4c-5.1,0-8.6,2.8-8.6,6.7
		c0,3.1,2.2,4.9,7.6,6.3l3.5,0.9c7.3,1.8,10.3,4.7,10.3,9.7c0,6.2-5.1,10.4-12.9,10.4c-7.3,0-12.6-4-13-10H200.1z"/>
	<path class="st0" d="M242.1,15.1V22h6.1v2.7h-6.1v16.4c0,3.2,1.2,4.6,4.2,4.6c0.5,0,1.4,0,1.9-0.1v2.8c-0.6,0.1-1.7,0.2-2.3,0.2
		c-5.1,0-7.1-1.9-7.1-6.7V24.7h-4.3V22h4.3v-6.9H242.1z"/>
	<path class="st0" d="M260.6,41.2c0-4.6,3.4-7.3,9.5-7.7l8.3-0.5v-2.5c0-3.9-2.4-6-6.7-6c-3.6,0-6.2,1.5-6.8,4.1h-3.3
		c0.6-4.3,4.7-7,10.2-7c6.2,0,9.8,3.2,9.8,8.8v18.1h-3.1v-4.6h-0.3c-1.6,3.2-4.9,5-8.8,5C264.4,48.9,260.6,45.9,260.6,41.2z
		 M278.5,38.6v-3.1l-7.9,0.6c-4.5,0.3-6.7,2-6.7,5c0,3.1,2.6,5,6.2,5C274.9,46.1,278.5,42.8,278.5,38.6z"/>
	<path class="st0" d="M297.4,22h3.1v4.4h0.3c0.9-2.9,3.9-4.8,7.4-4.8c0.9,0,1.8,0,2.5,0.2V25c-0.6-0.2-1.9-0.3-2.9-0.3
		c-4.1,0-7.2,3.1-7.2,7.3v16.5h-3.2V22z"/>
	<path class="st0" d="M332.2,21.5c5.3,0,9.1,2.7,9.7,6.9h-3.2c-0.6-2.5-3.1-4.1-6.6-4.1c-3.5,0-6.3,1.9-6.3,4.6
		c0,2.2,1.7,3.4,5.3,4.3l3.6,0.9c5.1,1.2,7.6,3.3,7.6,7.1c0,4.6-4.5,7.8-10.2,7.8s-9.8-2.7-10.3-7.1h3.3c0.7,2.7,3.2,4.3,7.1,4.3
		c3.9,0,6.8-2,6.8-4.8c0-2.3-1.6-3.7-5.2-4.5l-4-1c-4.9-1.2-7.2-3.2-7.2-6.9C322.6,24.7,326.8,21.5,332.2,21.5z"/>
</g>
<g>
	<polyline class="st1" points="58.7,30.4 73.8,30.1 61.7,39.4 66.6,54.3 54.4,45.1 42.4,54.6 47,39.6 41.1,35.4 	"/>
	<polyline class="st2" points="37.7,29.3 38.5,26.5 25.6,17.5 40.7,17.4 45.6,2.3 50.3,17.2 65.4,16.9 53.2,26.3 58.2,41.1 46,31.9 
			"/>
	<polygon class="st3" points="26.3,31.5 41.3,31.1 29.2,40.5 34.2,55.3 21.9,46.2 9.9,55.7 14.5,40.7 2.1,31.7 17.2,31.6 21.5,16.5 
			"/>
</g>
</svg>
